<?xml version="1.0" encoding="utf-8"?>
<svg width="195px" height="299px" viewbox="0 0 195 299" version="1.1" xmlns:xlink="http://www.w3.org/1999/xlink" xmlns="http://www.w3.org/2000/svg">
  <path d="M152.965 5.16197L291.822 185.956Q291.928 186.094 292.024 186.239Q292.12 186.384 292.206 186.535Q292.292 186.686 292.367 186.843Q292.442 187 292.506 187.162Q292.57 187.324 292.622 187.489Q292.675 187.655 292.716 187.824Q292.757 187.993 292.786 188.165Q292.815 188.336 292.832 188.509Q292.849 188.682 292.854 188.856Q292.859 189.03 292.852 189.204Q292.845 189.378 292.826 189.551Q292.807 189.723 292.776 189.895Q292.745 190.066 292.702 190.234Q292.659 190.403 292.604 190.568Q292.55 190.733 292.484 190.894Q292.418 191.055 292.341 191.211Q292.264 191.367 292.177 191.517Q292.089 191.668 291.992 191.811Q291.894 191.955 291.786 192.092Q291.679 192.229 291.562 192.357Q291.445 192.486 291.32 192.607Q291.194 192.727 291.061 192.839Q290.927 192.95 290.786 193.052Q290.645 193.154 290.498 193.246Q290.35 193.338 290.196 193.419Q290.042 193.5 289.883 193.571Q289.725 193.641 289.561 193.701Q289.397 193.76 289.23 193.808Q289.063 193.856 288.893 193.892Q288.723 193.928 288.55 193.952Q288.378 193.976 288.205 193.988Q288.031 194 287.857 194L10.1427 194Q9.96879 194 9.79529 193.988Q9.62179 193.976 9.44955 193.952Q9.27731 193.928 9.10716 193.892Q8.93701 193.856 8.76978 193.808Q8.60254 193.76 8.43903 193.701Q8.27552 193.641 8.11653 193.571Q7.95753 193.5 7.80382 193.419Q7.65011 193.338 7.50243 193.246Q7.35474 193.154 7.2138 193.052Q7.07286 192.95 6.93934 192.839Q6.80582 192.727 6.68036 192.607Q6.55491 192.486 6.43813 192.357Q6.32136 192.229 6.21382 192.092Q6.10628 191.955 6.00851 191.811Q5.91073 191.668 5.82318 191.517Q5.73564 191.367 5.65875 191.211Q5.58186 191.055 5.516 190.894Q5.45014 190.733 5.39563 190.568Q5.34111 190.403 5.29821 190.234Q5.2553 190.066 5.22422 189.895Q5.19313 189.723 5.17401 189.551Q5.15489 189.378 5.14783 189.204Q5.14077 189.03 5.14581 188.856Q5.15085 188.682 5.16795 188.509Q5.18506 188.336 5.21415 188.165Q5.24324 187.993 5.28418 187.824Q5.32512 187.655 5.37771 187.489Q5.4303 187.324 5.49428 187.162Q5.55826 187 5.63333 186.843Q5.7084 186.686 5.79419 186.535Q5.87998 186.384 5.97607 186.239Q6.07217 186.094 6.17811 185.956L145.035 5.16197Q145.123 5.04847 145.216 4.94014Q145.31 4.83182 145.409 4.72902Q145.509 4.62622 145.614 4.52929Q145.719 4.43235 145.83 4.3416Q145.941 4.25085 146.056 4.16658Q146.172 4.0823 146.292 4.00479Q146.413 3.92727 146.537 3.85676Q146.662 3.78625 146.79 3.72299Q146.918 3.65972 147.05 3.6039Q147.182 3.54808 147.317 3.49989Q147.451 3.4517 147.589 3.4113Q147.726 3.37089 147.865 3.33841Q148.005 3.30593 148.146 3.28147Q148.287 3.25702 148.429 3.24067Q148.571 3.22432 148.714 3.21614Q148.857 3.20795 149 3.20795Q149.143 3.20795 149.286 3.21614Q149.429 3.22432 149.571 3.24067Q149.713 3.25702 149.854 3.28147Q149.995 3.30593 150.135 3.33841Q150.274 3.37089 150.411 3.41129Q150.549 3.4517 150.683 3.49989Q150.818 3.54808 150.95 3.6039Q151.082 3.65972 151.21 3.72299Q151.338 3.78625 151.463 3.85676Q151.587 3.92727 151.708 4.00479Q151.828 4.0823 151.944 4.16658Q152.059 4.25085 152.17 4.3416Q152.281 4.43235 152.386 4.52929Q152.491 4.62622 152.591 4.72902Q152.69 4.83182 152.784 4.94014Q152.877 5.04847 152.965 5.16197L152.965 5.16197Z" transform="matrix(-3.3259353E-06 1 -1 -3.3259353E-06 194.00098 0.00064086914)" id="Triangle" fill="#FBB117" fill-rule="evenodd" stroke="none" />
</svg>